# xmcd
#
# Track frame offsets: 
#        150
#        14758
#        26587
#        44159
#        59715
#        76504
#        94703
#        118141
#        132436
#        150493
#        167912
#        192861
#        207668
#        240412
#        266793
#        279451
#
# Disc length: 4003 seconds
#
# Revision: 0
# Processed by: cddbd v1.5.2PL0 Copyright (c) Steve Scherf et al.
# Submitted via: ExactAudioCopy v1.0b1
#
DISCID=e90fa110
DTITLE=Zac Brown Band - Jekyll and Hyde
DYEAR=2015
DGENRE=Country
TTITLE0=Beautiful Drug
TTITLE1=Loving You Easy
TTITLE2=Remedy
TTITLE3=Homegrown
TTITLE4=Mango Tree
TTITLE5=Heavy Is the Head
TTITLE6=Bittersweet
TTITLE7=Castaway
TTITLE8=Tomorrow Never Comes
TTITLE9=One Day
TTITLE10=Dress Blues
TTITLE11=Young And Wild
TTITLE12=Junkyard
TTITLE13=I'll Be Your Man (Song for a Daughter)
TTITLE14=Wildfire
TTITLE15=Tomorrow Never Comes (Acoustic Version)
EXTD=
EXTT0=
EXTT1=
EXTT2=
EXTT3=
EXTT4=
EXTT5=
EXTT6=
EXTT7=
EXTT8=
EXTT9=
EXTT10=
EXTT11=
EXTT12=
EXTT13=
EXTT14=
EXTT15=
PLAYORDER=
